<mxfile host="app.diagrams.net" modified="2024-05-20T22:05:02.218Z" agent="Mozilla/5.0 (Windows NT 10.0; Win64; x64) AppleWebKit/537.36 (KHTML, like Gecko) Chrome/124.0.0.0 Safari/537.36" etag="SSPgKm_kFpOMStcvde6q" version="24.4.4" type="device">
  <diagram name="Página-1" id="NrLhKzjZjxU4t5tJcpzj">
    <mxGraphModel dx="1877" dy="1726" grid="1" gridSize="10" guides="1" tooltips="1" connect="1" arrows="1" fold="1" page="1" pageScale="1" pageWidth="827" pageHeight="1169" math="0" shadow="0">
      <root>
        <mxCell id="0" />
        <mxCell id="1" parent="0" />
        <mxCell id="7_W-gHy32wnHdt1qk6W1-1" style="edgeStyle=orthogonalEdgeStyle;rounded=0;orthogonalLoop=1;jettySize=auto;html=1;fontSize=12;startSize=8;endSize=8;" edge="1" parent="1" source="7_W-gHy32wnHdt1qk6W1-54">
          <mxGeometry relative="1" as="geometry">
            <mxPoint x="480" y="730" as="targetPoint" />
          </mxGeometry>
        </mxCell>
        <mxCell id="7_W-gHy32wnHdt1qk6W1-2" value="" style="endArrow=none;dashed=1;html=1;dashPattern=1 3;strokeWidth=2;rounded=0;" edge="1" parent="1">
          <mxGeometry width="50" height="50" relative="1" as="geometry">
            <mxPoint x="-200" y="200" as="sourcePoint" />
            <mxPoint x="880" y="200" as="targetPoint" />
          </mxGeometry>
        </mxCell>
        <mxCell id="7_W-gHy32wnHdt1qk6W1-3" value="&lt;font style=&quot;font-size: 30px;&quot;&gt;Cliente&lt;/font&gt;" style="text;html=1;align=center;verticalAlign=middle;whiteSpace=wrap;rounded=0;" vertex="1" parent="1">
          <mxGeometry x="-110" y="95" width="110" height="70" as="geometry" />
        </mxCell>
        <mxCell id="7_W-gHy32wnHdt1qk6W1-4" value="" style="edgeStyle=orthogonalEdgeStyle;rounded=0;orthogonalLoop=1;jettySize=auto;html=1;" edge="1" parent="1" source="7_W-gHy32wnHdt1qk6W1-5" target="7_W-gHy32wnHdt1qk6W1-8">
          <mxGeometry relative="1" as="geometry" />
        </mxCell>
        <mxCell id="7_W-gHy32wnHdt1qk6W1-5" value="Inicio" style="ellipse;whiteSpace=wrap;html=1;aspect=fixed;" vertex="1" parent="1">
          <mxGeometry x="60" y="-50" width="80" height="80" as="geometry" />
        </mxCell>
        <mxCell id="7_W-gHy32wnHdt1qk6W1-6" value="" style="edgeStyle=orthogonalEdgeStyle;rounded=0;orthogonalLoop=1;jettySize=auto;html=1;" edge="1" parent="1" source="7_W-gHy32wnHdt1qk6W1-8">
          <mxGeometry relative="1" as="geometry">
            <mxPoint x="100" y="250" as="targetPoint" />
          </mxGeometry>
        </mxCell>
        <mxCell id="7_W-gHy32wnHdt1qk6W1-7" value="" style="edgeStyle=orthogonalEdgeStyle;rounded=0;orthogonalLoop=1;jettySize=auto;html=1;" edge="1" parent="1" source="7_W-gHy32wnHdt1qk6W1-8" target="7_W-gHy32wnHdt1qk6W1-11">
          <mxGeometry relative="1" as="geometry" />
        </mxCell>
        <mxCell id="7_W-gHy32wnHdt1qk6W1-8" value="Trocar o sistema operacional" style="whiteSpace=wrap;html=1;" vertex="1" parent="1">
          <mxGeometry x="40" y="100" width="120" height="60" as="geometry" />
        </mxCell>
        <mxCell id="7_W-gHy32wnHdt1qk6W1-9" value="&lt;font style=&quot;font-size: 30px;&quot;&gt;N1&lt;/font&gt;" style="text;html=1;align=center;verticalAlign=middle;whiteSpace=wrap;rounded=0;" vertex="1" parent="1">
          <mxGeometry x="-110" y="500" width="110" height="70" as="geometry" />
        </mxCell>
        <mxCell id="7_W-gHy32wnHdt1qk6W1-10" style="edgeStyle=orthogonalEdgeStyle;rounded=0;orthogonalLoop=1;jettySize=auto;html=1;entryX=1;entryY=0.5;entryDx=0;entryDy=0;" edge="1" parent="1" source="7_W-gHy32wnHdt1qk6W1-11" target="7_W-gHy32wnHdt1qk6W1-5">
          <mxGeometry relative="1" as="geometry">
            <mxPoint x="300" y="-10" as="targetPoint" />
            <Array as="points">
              <mxPoint x="300" y="50" />
              <mxPoint x="301" y="50" />
              <mxPoint x="301" y="-10" />
            </Array>
          </mxGeometry>
        </mxCell>
        <mxCell id="7_W-gHy32wnHdt1qk6W1-11" value="Cliente consegue resolver?" style="rhombus;whiteSpace=wrap;html=1;" vertex="1" parent="1">
          <mxGeometry x="260" y="90" width="80" height="80" as="geometry" />
        </mxCell>
        <mxCell id="7_W-gHy32wnHdt1qk6W1-12" style="edgeStyle=orthogonalEdgeStyle;rounded=0;orthogonalLoop=1;jettySize=auto;html=1;entryX=0;entryY=0.5;entryDx=0;entryDy=0;" edge="1" parent="1" source="7_W-gHy32wnHdt1qk6W1-11" target="7_W-gHy32wnHdt1qk6W1-81">
          <mxGeometry relative="1" as="geometry">
            <mxPoint x="650" y="150" as="targetPoint" />
          </mxGeometry>
        </mxCell>
        <mxCell id="7_W-gHy32wnHdt1qk6W1-13" value="Sim" style="text;html=1;align=center;verticalAlign=middle;resizable=0;points=[];autosize=1;strokeColor=none;fillColor=none;" vertex="1" parent="1">
          <mxGeometry x="325" y="85" width="40" height="30" as="geometry" />
        </mxCell>
        <mxCell id="7_W-gHy32wnHdt1qk6W1-14" value="Não" style="text;html=1;align=center;verticalAlign=middle;resizable=0;points=[];autosize=1;strokeColor=none;fillColor=none;" vertex="1" parent="1">
          <mxGeometry x="240" y="70" width="50" height="30" as="geometry" />
        </mxCell>
        <mxCell id="7_W-gHy32wnHdt1qk6W1-15" value="&lt;font style=&quot;font-size: 30px;&quot;&gt;N2&lt;/font&gt;" style="text;html=1;align=center;verticalAlign=middle;whiteSpace=wrap;rounded=0;" vertex="1" parent="1">
          <mxGeometry x="-110" y="975" width="110" height="70" as="geometry" />
        </mxCell>
        <mxCell id="7_W-gHy32wnHdt1qk6W1-16" style="edgeStyle=orthogonalEdgeStyle;rounded=0;orthogonalLoop=1;jettySize=auto;html=1;" edge="1" parent="1" source="7_W-gHy32wnHdt1qk6W1-18" target="7_W-gHy32wnHdt1qk6W1-20">
          <mxGeometry relative="1" as="geometry">
            <mxPoint x="230" y="1010" as="targetPoint" />
          </mxGeometry>
        </mxCell>
        <mxCell id="7_W-gHy32wnHdt1qk6W1-17" style="edgeStyle=orthogonalEdgeStyle;rounded=0;orthogonalLoop=1;jettySize=auto;html=1;entryX=0.5;entryY=0;entryDx=0;entryDy=0;" edge="1" parent="1" source="7_W-gHy32wnHdt1qk6W1-18" target="7_W-gHy32wnHdt1qk6W1-25">
          <mxGeometry relative="1" as="geometry" />
        </mxCell>
        <mxCell id="7_W-gHy32wnHdt1qk6W1-18" value="N2 consegue resolver?" style="rhombus;whiteSpace=wrap;html=1;" vertex="1" parent="1">
          <mxGeometry x="60" y="975" width="80" height="80" as="geometry" />
        </mxCell>
        <mxCell id="7_W-gHy32wnHdt1qk6W1-19" value="" style="edgeStyle=orthogonalEdgeStyle;rounded=0;orthogonalLoop=1;jettySize=auto;html=1;entryX=0;entryY=0.5;entryDx=0;entryDy=0;entryPerimeter=0;" edge="1" parent="1" source="7_W-gHy32wnHdt1qk6W1-20" target="7_W-gHy32wnHdt1qk6W1-66">
          <mxGeometry relative="1" as="geometry">
            <mxPoint x="403" y="1015" as="targetPoint" />
          </mxGeometry>
        </mxCell>
        <mxCell id="7_W-gHy32wnHdt1qk6W1-20" value="Implementação do novo Sistema Operacional" style="rounded=0;whiteSpace=wrap;html=1;" vertex="1" parent="1">
          <mxGeometry x="260" y="985" width="120" height="60" as="geometry" />
        </mxCell>
        <mxCell id="7_W-gHy32wnHdt1qk6W1-21" value="" style="endArrow=none;dashed=1;html=1;dashPattern=1 3;strokeWidth=2;rounded=0;" edge="1" parent="1">
          <mxGeometry width="50" height="50" relative="1" as="geometry">
            <mxPoint x="-220" y="940" as="sourcePoint" />
            <mxPoint x="882.4000244140625" y="940" as="targetPoint" />
          </mxGeometry>
        </mxCell>
        <mxCell id="7_W-gHy32wnHdt1qk6W1-22" value="&lt;font style=&quot;font-size: 30px;&quot;&gt;N3&lt;/font&gt;" style="text;html=1;align=center;verticalAlign=middle;whiteSpace=wrap;rounded=0;" vertex="1" parent="1">
          <mxGeometry x="-110" y="1150" width="110" height="70" as="geometry" />
        </mxCell>
        <mxCell id="7_W-gHy32wnHdt1qk6W1-23" style="edgeStyle=orthogonalEdgeStyle;rounded=0;orthogonalLoop=1;jettySize=auto;html=1;" edge="1" parent="1" source="7_W-gHy32wnHdt1qk6W1-25" target="7_W-gHy32wnHdt1qk6W1-27">
          <mxGeometry relative="1" as="geometry">
            <mxPoint x="230" y="1185" as="targetPoint" />
          </mxGeometry>
        </mxCell>
        <mxCell id="7_W-gHy32wnHdt1qk6W1-24" value="" style="edgeStyle=orthogonalEdgeStyle;rounded=0;orthogonalLoop=1;jettySize=auto;html=1;" edge="1" parent="1" source="7_W-gHy32wnHdt1qk6W1-25" target="7_W-gHy32wnHdt1qk6W1-32">
          <mxGeometry relative="1" as="geometry" />
        </mxCell>
        <mxCell id="7_W-gHy32wnHdt1qk6W1-25" value="N3 consegue resolver?" style="rhombus;whiteSpace=wrap;html=1;" vertex="1" parent="1">
          <mxGeometry x="60" y="1145" width="80" height="80" as="geometry" />
        </mxCell>
        <mxCell id="7_W-gHy32wnHdt1qk6W1-26" value="" style="edgeStyle=orthogonalEdgeStyle;rounded=0;orthogonalLoop=1;jettySize=auto;html=1;entryX=-0.018;entryY=0.592;entryDx=0;entryDy=0;entryPerimeter=0;" edge="1" parent="1" source="7_W-gHy32wnHdt1qk6W1-27" target="7_W-gHy32wnHdt1qk6W1-68">
          <mxGeometry relative="1" as="geometry">
            <mxPoint x="440" y="1185" as="targetPoint" />
          </mxGeometry>
        </mxCell>
        <mxCell id="7_W-gHy32wnHdt1qk6W1-27" value="Implementação do novo Sistema Operacional" style="rounded=0;whiteSpace=wrap;html=1;" vertex="1" parent="1">
          <mxGeometry x="250" y="1155" width="120" height="60" as="geometry" />
        </mxCell>
        <mxCell id="7_W-gHy32wnHdt1qk6W1-28" value="" style="endArrow=none;dashed=1;html=1;dashPattern=1 3;strokeWidth=2;rounded=0;" edge="1" parent="1">
          <mxGeometry width="50" height="50" relative="1" as="geometry">
            <mxPoint x="-210" y="1110" as="sourcePoint" />
            <mxPoint x="880" y="1110" as="targetPoint" />
          </mxGeometry>
        </mxCell>
        <mxCell id="7_W-gHy32wnHdt1qk6W1-29" style="edgeStyle=orthogonalEdgeStyle;rounded=0;orthogonalLoop=1;jettySize=auto;html=1;" edge="1" parent="1" target="7_W-gHy32wnHdt1qk6W1-31">
          <mxGeometry relative="1" as="geometry">
            <mxPoint x="230" y="1365" as="targetPoint" />
            <mxPoint x="140" y="1365" as="sourcePoint" />
          </mxGeometry>
        </mxCell>
        <mxCell id="7_W-gHy32wnHdt1qk6W1-30" value="" style="edgeStyle=orthogonalEdgeStyle;rounded=0;orthogonalLoop=1;jettySize=auto;html=1;entryX=0;entryY=0.5;entryDx=0;entryDy=0;entryPerimeter=0;" edge="1" parent="1" source="7_W-gHy32wnHdt1qk6W1-31" target="7_W-gHy32wnHdt1qk6W1-72">
          <mxGeometry relative="1" as="geometry">
            <mxPoint x="440" y="1365" as="targetPoint" />
          </mxGeometry>
        </mxCell>
        <mxCell id="7_W-gHy32wnHdt1qk6W1-31" value="Implementação do novo Sistema Operacional" style="rounded=0;whiteSpace=wrap;html=1;" vertex="1" parent="1">
          <mxGeometry x="250" y="1335" width="120" height="60" as="geometry" />
        </mxCell>
        <mxCell id="7_W-gHy32wnHdt1qk6W1-32" value="Fornecedor consegue resolver?" style="rhombus;whiteSpace=wrap;html=1;" vertex="1" parent="1">
          <mxGeometry x="60" y="1325" width="80" height="80" as="geometry" />
        </mxCell>
        <mxCell id="7_W-gHy32wnHdt1qk6W1-33" value="&lt;font style=&quot;font-size: 30px;&quot;&gt;Fornecedor&lt;/font&gt;" style="text;html=1;align=center;verticalAlign=middle;whiteSpace=wrap;rounded=0;" vertex="1" parent="1">
          <mxGeometry x="-120" y="1330" width="110" height="70" as="geometry" />
        </mxCell>
        <mxCell id="7_W-gHy32wnHdt1qk6W1-34" value="" style="edgeStyle=none;curved=1;rounded=0;orthogonalLoop=1;jettySize=auto;html=1;fontSize=12;startSize=8;endSize=8;" edge="1" parent="1" source="7_W-gHy32wnHdt1qk6W1-37" target="7_W-gHy32wnHdt1qk6W1-8">
          <mxGeometry relative="1" as="geometry">
            <Array as="points">
              <mxPoint x="100" y="210" />
            </Array>
          </mxGeometry>
        </mxCell>
        <mxCell id="7_W-gHy32wnHdt1qk6W1-35" style="edgeStyle=orthogonalEdgeStyle;rounded=0;orthogonalLoop=1;jettySize=auto;html=1;fontSize=12;startSize=8;endSize=8;entryX=0.5;entryY=1;entryDx=0;entryDy=0;" edge="1" parent="1" source="7_W-gHy32wnHdt1qk6W1-37" target="7_W-gHy32wnHdt1qk6W1-81">
          <mxGeometry relative="1" as="geometry">
            <mxPoint x="710" y="170" as="targetPoint" />
          </mxGeometry>
        </mxCell>
        <mxCell id="7_W-gHy32wnHdt1qk6W1-36" value="" style="edgeStyle=none;curved=1;rounded=0;orthogonalLoop=1;jettySize=auto;html=1;fontSize=12;startSize=8;endSize=8;" edge="1" parent="1" source="7_W-gHy32wnHdt1qk6W1-37" target="7_W-gHy32wnHdt1qk6W1-40">
          <mxGeometry relative="1" as="geometry" />
        </mxCell>
        <mxCell id="7_W-gHy32wnHdt1qk6W1-37" value="É um problema?" style="rhombus;whiteSpace=wrap;html=1;" vertex="1" parent="1">
          <mxGeometry x="60" y="250" width="80" height="80" as="geometry" />
        </mxCell>
        <mxCell id="7_W-gHy32wnHdt1qk6W1-38" value="" style="edgeStyle=none;curved=1;rounded=0;orthogonalLoop=1;jettySize=auto;html=1;fontSize=12;startSize=8;endSize=8;" edge="1" parent="1" source="7_W-gHy32wnHdt1qk6W1-40" target="7_W-gHy32wnHdt1qk6W1-43">
          <mxGeometry relative="1" as="geometry" />
        </mxCell>
        <mxCell id="7_W-gHy32wnHdt1qk6W1-39" style="edgeStyle=orthogonalEdgeStyle;rounded=0;orthogonalLoop=1;jettySize=auto;html=1;fontSize=12;startSize=8;endSize=8;entryX=0.5;entryY=1;entryDx=0;entryDy=0;" edge="1" parent="1" source="7_W-gHy32wnHdt1qk6W1-40" target="7_W-gHy32wnHdt1qk6W1-81">
          <mxGeometry relative="1" as="geometry">
            <mxPoint x="710" y="170" as="targetPoint" />
          </mxGeometry>
        </mxCell>
        <mxCell id="7_W-gHy32wnHdt1qk6W1-40" value="É um incidente?" style="rhombus;whiteSpace=wrap;html=1;" vertex="1" parent="1">
          <mxGeometry x="60" y="360" width="80" height="80" as="geometry" />
        </mxCell>
        <mxCell id="7_W-gHy32wnHdt1qk6W1-41" style="edgeStyle=orthogonalEdgeStyle;rounded=0;orthogonalLoop=1;jettySize=auto;html=1;fontSize=12;startSize=8;endSize=8;entryX=0.5;entryY=1;entryDx=0;entryDy=0;" edge="1" parent="1" source="7_W-gHy32wnHdt1qk6W1-43" target="7_W-gHy32wnHdt1qk6W1-81">
          <mxGeometry relative="1" as="geometry">
            <mxPoint x="710" y="170" as="targetPoint" />
          </mxGeometry>
        </mxCell>
        <mxCell id="7_W-gHy32wnHdt1qk6W1-42" value="" style="edgeStyle=none;curved=1;rounded=0;orthogonalLoop=1;jettySize=auto;html=1;fontSize=12;startSize=8;endSize=8;" edge="1" parent="1" source="7_W-gHy32wnHdt1qk6W1-43" target="7_W-gHy32wnHdt1qk6W1-51">
          <mxGeometry relative="1" as="geometry" />
        </mxCell>
        <mxCell id="7_W-gHy32wnHdt1qk6W1-43" value="É uma requisição?" style="rhombus;whiteSpace=wrap;html=1;" vertex="1" parent="1">
          <mxGeometry x="60" y="470" width="80" height="80" as="geometry" />
        </mxCell>
        <mxCell id="7_W-gHy32wnHdt1qk6W1-44" value="Sim" style="text;html=1;align=center;verticalAlign=middle;resizable=0;points=[];autosize=1;strokeColor=none;fillColor=none;" vertex="1" parent="1">
          <mxGeometry x="130" y="260" width="40" height="30" as="geometry" />
        </mxCell>
        <mxCell id="7_W-gHy32wnHdt1qk6W1-45" value="Sim" style="text;html=1;align=center;verticalAlign=middle;resizable=0;points=[];autosize=1;strokeColor=none;fillColor=none;" vertex="1" parent="1">
          <mxGeometry x="130" y="370" width="40" height="30" as="geometry" />
        </mxCell>
        <mxCell id="7_W-gHy32wnHdt1qk6W1-46" value="Não" style="text;html=1;align=center;verticalAlign=middle;resizable=0;points=[];autosize=1;strokeColor=none;fillColor=none;" vertex="1" parent="1">
          <mxGeometry x="40" y="320" width="50" height="30" as="geometry" />
        </mxCell>
        <mxCell id="7_W-gHy32wnHdt1qk6W1-47" value="Não" style="text;html=1;align=center;verticalAlign=middle;resizable=0;points=[];autosize=1;strokeColor=none;fillColor=none;" vertex="1" parent="1">
          <mxGeometry x="40" y="430" width="50" height="30" as="geometry" />
        </mxCell>
        <mxCell id="7_W-gHy32wnHdt1qk6W1-48" value="Sim" style="text;html=1;align=center;verticalAlign=middle;resizable=0;points=[];autosize=1;strokeColor=none;fillColor=none;" vertex="1" parent="1">
          <mxGeometry x="40" y="520" width="40" height="30" as="geometry" />
        </mxCell>
        <mxCell id="7_W-gHy32wnHdt1qk6W1-49" value="Não" style="text;html=1;align=center;verticalAlign=middle;resizable=0;points=[];autosize=1;strokeColor=none;fillColor=none;" vertex="1" parent="1">
          <mxGeometry x="120" y="480" width="50" height="30" as="geometry" />
        </mxCell>
        <mxCell id="7_W-gHy32wnHdt1qk6W1-50" value="" style="edgeStyle=orthogonalEdgeStyle;rounded=0;orthogonalLoop=1;jettySize=auto;html=1;fontSize=12;startSize=8;endSize=8;" edge="1" parent="1" source="7_W-gHy32wnHdt1qk6W1-51">
          <mxGeometry relative="1" as="geometry">
            <mxPoint x="220" y="630" as="targetPoint" />
          </mxGeometry>
        </mxCell>
        <mxCell id="7_W-gHy32wnHdt1qk6W1-51" value="Registro da ocorrência" style="whiteSpace=wrap;html=1;" vertex="1" parent="1">
          <mxGeometry x="40" y="600" width="120" height="60" as="geometry" />
        </mxCell>
        <mxCell id="7_W-gHy32wnHdt1qk6W1-52" value="" style="edgeStyle=orthogonalEdgeStyle;rounded=0;orthogonalLoop=1;jettySize=auto;html=1;fontSize=12;startSize=8;endSize=8;" edge="1" parent="1" source="7_W-gHy32wnHdt1qk6W1-53" target="7_W-gHy32wnHdt1qk6W1-54">
          <mxGeometry relative="1" as="geometry" />
        </mxCell>
        <mxCell id="7_W-gHy32wnHdt1qk6W1-53" value="Identificar quem foi afetado para solicitação da troca" style="shape=process;whiteSpace=wrap;html=1;backgroundOutline=1;" vertex="1" parent="1">
          <mxGeometry x="220" y="600" width="120" height="60" as="geometry" />
        </mxCell>
        <mxCell id="7_W-gHy32wnHdt1qk6W1-54" value="Definir prioridade com base na Matrix SLA" style="shape=process;whiteSpace=wrap;html=1;backgroundOutline=1;" vertex="1" parent="1">
          <mxGeometry x="420" y="600" width="120" height="60" as="geometry" />
        </mxCell>
        <mxCell id="7_W-gHy32wnHdt1qk6W1-55" style="edgeStyle=none;curved=1;rounded=0;orthogonalLoop=1;jettySize=auto;html=1;entryX=0.5;entryY=0;entryDx=0;entryDy=0;fontSize=12;startSize=8;endSize=8;" edge="1" parent="1" source="7_W-gHy32wnHdt1qk6W1-57" target="7_W-gHy32wnHdt1qk6W1-60">
          <mxGeometry relative="1" as="geometry" />
        </mxCell>
        <mxCell id="7_W-gHy32wnHdt1qk6W1-56" style="edgeStyle=none;curved=1;rounded=0;orthogonalLoop=1;jettySize=auto;html=1;entryX=0.5;entryY=0;entryDx=0;entryDy=0;fontSize=12;startSize=8;endSize=8;" edge="1" parent="1" source="7_W-gHy32wnHdt1qk6W1-57" target="7_W-gHy32wnHdt1qk6W1-18">
          <mxGeometry relative="1" as="geometry" />
        </mxCell>
        <mxCell id="7_W-gHy32wnHdt1qk6W1-57" value="N1 consegue resolver?" style="rhombus;whiteSpace=wrap;html=1;" vertex="1" parent="1">
          <mxGeometry x="60" y="690" width="80" height="80" as="geometry" />
        </mxCell>
        <mxCell id="7_W-gHy32wnHdt1qk6W1-58" value="" style="endArrow=classic;html=1;rounded=0;fontSize=12;startSize=8;endSize=8;curved=1;" edge="1" parent="1">
          <mxGeometry width="50" height="50" relative="1" as="geometry">
            <mxPoint x="480" y="730" as="sourcePoint" />
            <mxPoint x="140" y="730" as="targetPoint" />
          </mxGeometry>
        </mxCell>
        <mxCell id="7_W-gHy32wnHdt1qk6W1-59" value="" style="edgeStyle=none;curved=1;rounded=0;orthogonalLoop=1;jettySize=auto;html=1;fontSize=12;startSize=8;endSize=8;" edge="1" parent="1" source="7_W-gHy32wnHdt1qk6W1-60" target="7_W-gHy32wnHdt1qk6W1-64">
          <mxGeometry relative="1" as="geometry" />
        </mxCell>
        <mxCell id="7_W-gHy32wnHdt1qk6W1-60" value="Implementação de novo Sistema Operacional" style="whiteSpace=wrap;html=1;" vertex="1" parent="1">
          <mxGeometry x="250" y="840" width="120" height="60" as="geometry" />
        </mxCell>
        <mxCell id="7_W-gHy32wnHdt1qk6W1-61" value="Sim" style="text;html=1;align=center;verticalAlign=middle;resizable=0;points=[];autosize=1;strokeColor=none;fillColor=none;" vertex="1" parent="1">
          <mxGeometry x="220" y="770" width="40" height="30" as="geometry" />
        </mxCell>
        <mxCell id="7_W-gHy32wnHdt1qk6W1-62" value="Não" style="text;html=1;align=center;verticalAlign=middle;resizable=0;points=[];autosize=1;strokeColor=none;fillColor=none;" vertex="1" parent="1">
          <mxGeometry x="50" y="840" width="50" height="30" as="geometry" />
        </mxCell>
        <mxCell id="7_W-gHy32wnHdt1qk6W1-63" style="edgeStyle=orthogonalEdgeStyle;rounded=0;orthogonalLoop=1;jettySize=auto;html=1;fontSize=12;startSize=8;endSize=8;" edge="1" parent="1" source="7_W-gHy32wnHdt1qk6W1-64" target="7_W-gHy32wnHdt1qk6W1-81">
          <mxGeometry relative="1" as="geometry">
            <mxPoint x="710" y="170" as="targetPoint" />
          </mxGeometry>
        </mxCell>
        <mxCell id="7_W-gHy32wnHdt1qk6W1-64" value="Atualização na base de conhecimento" style="shape=cylinder3;whiteSpace=wrap;html=1;boundedLbl=1;backgroundOutline=1;size=15;" vertex="1" parent="1">
          <mxGeometry x="510" y="820" width="80" height="100" as="geometry" />
        </mxCell>
        <mxCell id="7_W-gHy32wnHdt1qk6W1-65" style="edgeStyle=orthogonalEdgeStyle;rounded=0;orthogonalLoop=1;jettySize=auto;html=1;fontSize=12;startSize=8;endSize=8;" edge="1" parent="1" source="7_W-gHy32wnHdt1qk6W1-66" target="7_W-gHy32wnHdt1qk6W1-81">
          <mxGeometry relative="1" as="geometry">
            <mxPoint x="710" y="170" as="targetPoint" />
          </mxGeometry>
        </mxCell>
        <mxCell id="7_W-gHy32wnHdt1qk6W1-66" value="Atualização na base de conhecimento" style="shape=cylinder3;whiteSpace=wrap;html=1;boundedLbl=1;backgroundOutline=1;size=15;" vertex="1" parent="1">
          <mxGeometry x="510" y="965" width="80" height="100" as="geometry" />
        </mxCell>
        <mxCell id="7_W-gHy32wnHdt1qk6W1-67" style="edgeStyle=orthogonalEdgeStyle;rounded=0;orthogonalLoop=1;jettySize=auto;html=1;fontSize=12;startSize=8;endSize=8;entryX=0.5;entryY=1;entryDx=0;entryDy=0;" edge="1" parent="1" source="7_W-gHy32wnHdt1qk6W1-68" target="7_W-gHy32wnHdt1qk6W1-81">
          <mxGeometry relative="1" as="geometry">
            <mxPoint x="710" y="170" as="targetPoint" />
          </mxGeometry>
        </mxCell>
        <mxCell id="7_W-gHy32wnHdt1qk6W1-68" value="Atualização na base de conhecimento" style="shape=cylinder3;whiteSpace=wrap;html=1;boundedLbl=1;backgroundOutline=1;size=15;" vertex="1" parent="1">
          <mxGeometry x="510" y="1125" width="80" height="100" as="geometry" />
        </mxCell>
        <mxCell id="7_W-gHy32wnHdt1qk6W1-69" value="" style="endArrow=none;dashed=1;html=1;dashPattern=1 3;strokeWidth=2;rounded=0;" edge="1" parent="1">
          <mxGeometry width="50" height="50" relative="1" as="geometry">
            <mxPoint x="-210" y="1280" as="sourcePoint" />
            <mxPoint x="880" y="1280" as="targetPoint" />
          </mxGeometry>
        </mxCell>
        <mxCell id="7_W-gHy32wnHdt1qk6W1-70" style="edgeStyle=none;curved=1;rounded=0;orthogonalLoop=1;jettySize=auto;html=1;exitX=0;exitY=0.5;exitDx=0;exitDy=0;exitPerimeter=0;fontSize=12;startSize=8;endSize=8;" edge="1" parent="1" source="7_W-gHy32wnHdt1qk6W1-68" target="7_W-gHy32wnHdt1qk6W1-68">
          <mxGeometry relative="1" as="geometry" />
        </mxCell>
        <mxCell id="7_W-gHy32wnHdt1qk6W1-71" style="edgeStyle=orthogonalEdgeStyle;rounded=0;orthogonalLoop=1;jettySize=auto;html=1;fontSize=12;startSize=8;endSize=8;entryX=0.5;entryY=1;entryDx=0;entryDy=0;" edge="1" parent="1" source="7_W-gHy32wnHdt1qk6W1-72" target="7_W-gHy32wnHdt1qk6W1-81">
          <mxGeometry relative="1" as="geometry">
            <mxPoint x="710" y="180" as="targetPoint" />
          </mxGeometry>
        </mxCell>
        <mxCell id="7_W-gHy32wnHdt1qk6W1-72" value="Atualização na base de conhecimento" style="shape=cylinder3;whiteSpace=wrap;html=1;boundedLbl=1;backgroundOutline=1;size=15;" vertex="1" parent="1">
          <mxGeometry x="510" y="1315" width="80" height="100" as="geometry" />
        </mxCell>
        <mxCell id="7_W-gHy32wnHdt1qk6W1-73" style="edgeStyle=none;curved=1;rounded=0;orthogonalLoop=1;jettySize=auto;html=1;exitX=0;exitY=0.5;exitDx=0;exitDy=0;exitPerimeter=0;fontSize=12;startSize=8;endSize=8;" edge="1" parent="1" source="7_W-gHy32wnHdt1qk6W1-72" target="7_W-gHy32wnHdt1qk6W1-72">
          <mxGeometry relative="1" as="geometry" />
        </mxCell>
        <mxCell id="7_W-gHy32wnHdt1qk6W1-74" value="Sim" style="text;html=1;align=center;verticalAlign=middle;resizable=0;points=[];autosize=1;strokeColor=none;fillColor=none;" vertex="1" parent="1">
          <mxGeometry x="160" y="985" width="40" height="30" as="geometry" />
        </mxCell>
        <mxCell id="7_W-gHy32wnHdt1qk6W1-75" value="Sim" style="text;html=1;align=center;verticalAlign=middle;resizable=0;points=[];autosize=1;strokeColor=none;fillColor=none;" vertex="1" parent="1">
          <mxGeometry x="160" y="1155" width="40" height="30" as="geometry" />
        </mxCell>
        <mxCell id="7_W-gHy32wnHdt1qk6W1-76" value="Sim" style="text;html=1;align=center;verticalAlign=middle;resizable=0;points=[];autosize=1;strokeColor=none;fillColor=none;" vertex="1" parent="1">
          <mxGeometry x="160" y="1335" width="40" height="30" as="geometry" />
        </mxCell>
        <mxCell id="7_W-gHy32wnHdt1qk6W1-77" value="Não" style="text;html=1;align=center;verticalAlign=middle;resizable=0;points=[];autosize=1;strokeColor=none;fillColor=none;" vertex="1" parent="1">
          <mxGeometry x="50" y="1055" width="50" height="30" as="geometry" />
        </mxCell>
        <mxCell id="7_W-gHy32wnHdt1qk6W1-78" value="Não" style="text;html=1;align=center;verticalAlign=middle;resizable=0;points=[];autosize=1;strokeColor=none;fillColor=none;" vertex="1" parent="1">
          <mxGeometry x="50" y="1240" width="50" height="30" as="geometry" />
        </mxCell>
        <mxCell id="7_W-gHy32wnHdt1qk6W1-79" value="Encerrar atendimento&amp;nbsp;" style="whiteSpace=wrap;html=1;" vertex="1" parent="1">
          <mxGeometry x="750" y="100" width="120" height="60" as="geometry" />
        </mxCell>
        <mxCell id="7_W-gHy32wnHdt1qk6W1-80" style="edgeStyle=none;curved=1;rounded=0;orthogonalLoop=1;jettySize=auto;html=1;entryX=0;entryY=0.5;entryDx=0;entryDy=0;fontSize=12;startSize=8;endSize=8;" edge="1" parent="1" source="7_W-gHy32wnHdt1qk6W1-81" target="7_W-gHy32wnHdt1qk6W1-79">
          <mxGeometry relative="1" as="geometry" />
        </mxCell>
        <mxCell id="7_W-gHy32wnHdt1qk6W1-81" value="Requisição concluída?" style="rhombus;whiteSpace=wrap;html=1;" vertex="1" parent="1">
          <mxGeometry x="610" y="90" width="80" height="80" as="geometry" />
        </mxCell>
        <mxCell id="7_W-gHy32wnHdt1qk6W1-82" value="Sim" style="text;html=1;align=center;verticalAlign=middle;resizable=0;points=[];autosize=1;strokeColor=none;fillColor=none;" vertex="1" parent="1">
          <mxGeometry x="690" y="100" width="40" height="30" as="geometry" />
        </mxCell>
      </root>
    </mxGraphModel>
  </diagram>
</mxfile>
